<svg width="25" height="25" viewBox="0 0 25 25" fill="none" xmlns="http://www.w3.org/2000/svg">
<g clip-path="url(#clip0)">
<path d="M10.1074 12.4999C10.1074 13.8213 11.1786 14.8925 12.5 14.8925C13.8214 14.8925 14.8926 13.8213 14.8926 12.4999C14.8926 11.1785 13.8214 10.1073 12.5 10.1073C11.1786 10.1073 10.1074 11.1785 10.1074 12.4999Z" fill="#999999"/>
<path d="M6.9046 8.26667C7.01962 7.95501 7.2031 7.67291 7.44152 7.44136C7.67307 7.20294 7.95498 7.01946 8.26683 6.90444C8.51974 6.80621 8.89969 6.68929 9.59949 6.65744C10.3565 6.62292 10.5835 6.61548 12.5 6.61548C14.4167 6.61548 14.6437 6.62273 15.4005 6.65725C16.1003 6.68929 16.4804 6.80621 16.7332 6.90444C17.045 7.01946 17.3271 7.20294 17.5585 7.44136C17.7969 7.67291 17.9804 7.95482 18.0956 8.26667C18.1938 8.51959 18.3107 8.89972 18.3426 9.59953C18.3771 10.3564 18.3846 10.5833 18.3846 12.5C18.3846 14.4165 18.3771 14.6435 18.3426 15.4005C18.3107 16.1003 18.1938 16.4803 18.0956 16.7332C17.9804 17.0451 17.7971 17.327 17.5587 17.5585C17.3271 17.7969 17.0452 17.9804 16.7334 18.0954C16.4804 18.1939 16.1003 18.3108 15.4005 18.3426C14.6437 18.3771 14.4169 18.3844 12.5002 18.3844C10.5833 18.3844 10.3563 18.3771 9.59969 18.3426C8.89988 18.3108 8.51974 18.1939 8.26683 18.0954C7.64084 17.854 7.14607 17.3592 6.9046 16.7332C6.80637 16.4803 6.68945 16.1003 6.65741 15.4005C6.62289 14.6435 6.61564 14.4165 6.61564 12.5C6.61564 10.5833 6.62289 10.3564 6.65741 9.59953C6.68926 8.89972 6.80618 8.51959 6.9046 8.26667ZM12.5 16.1856C14.5357 16.1856 16.186 14.5356 16.186 12.4998C16.186 10.4641 14.5357 8.81408 12.5 8.81408C10.4645 8.81408 8.81424 10.4641 8.81424 12.4998C8.81424 14.5356 10.4645 16.1856 12.5 16.1856ZM8.66852 9.52972C9.14421 9.52972 9.52988 9.14405 9.52988 8.66836C9.52988 8.19267 9.14421 7.807 8.66852 7.807C8.19283 7.807 7.80716 8.19267 7.80716 8.66836C7.80735 9.14405 8.19283 9.52972 8.66852 9.52972Z" fill="#999999"/>
<path d="M12.5 -0.00012207C19.4025 -0.00012207 25 5.59737 25 12.4999C25 19.4024 19.4025 24.9999 12.5 24.9999C5.5975 24.9999 0 19.4024 0 12.4999C0 5.59737 5.5975 -0.00012207 12.5 -0.00012207ZM5.36556 15.4591C5.40028 16.2232 5.52177 16.7449 5.69916 17.2015C6.07204 18.1657 6.83422 18.9278 7.79839 19.3007C8.25481 19.4781 8.77666 19.5994 9.54056 19.6343C10.306 19.6692 10.5505 19.6776 12.4998 19.6776C14.4493 19.6776 14.6936 19.6692 15.4593 19.6343C16.2231 19.5994 16.745 19.4781 17.2014 19.3007C17.6805 19.1205 18.1143 18.838 18.4729 18.4727C18.8379 18.1143 19.1204 17.6804 19.3007 17.2015C19.478 16.7451 19.5995 16.2232 19.6342 15.4593C19.6695 14.6937 19.6777 14.4492 19.6777 12.4999C19.6777 10.5506 19.6695 10.306 19.6344 9.54063C19.5997 8.77654 19.4784 8.25488 19.301 7.79826C19.1208 7.31933 18.8381 6.88541 18.4729 6.52702C18.1145 6.16176 17.6805 5.87928 17.2016 5.69904C16.745 5.52165 16.2233 5.40034 15.4593 5.36544C14.6938 5.33054 14.4493 5.32214 12.5 5.32214C10.5507 5.32214 10.3062 5.33054 9.54075 5.36563C8.77666 5.40034 8.255 5.52165 7.79839 5.69884C7.31945 5.87909 6.88553 6.16176 6.52695 6.52702C6.16188 6.8856 5.87921 7.31933 5.69916 7.79826C5.52158 8.25488 5.40028 8.77654 5.36537 9.54063C5.33047 10.306 5.32227 10.5506 5.32227 12.4999C5.32227 14.4492 5.33047 14.6937 5.36556 15.4591Z" fill="#999999"/>
</g>
<defs>
<clipPath id="clip0">
<rect width="25" height="25" fill="white" transform="matrix(-1 0 0 1 25 -0.00012207)"/>
</clipPath>
</defs>
</svg>
