<svg width="25" height="25" viewBox="0 0 25 25" fill="none" xmlns="http://www.w3.org/2000/svg">
<g clip-path="url(#clip0)">
<path d="M12.5 -0.00012207C5.59815 -0.00012207 0 5.59803 0 12.4999C0 19.4017 5.59815 24.9999 12.5 24.9999C19.4018 24.9999 25 19.4017 25 12.4999C25 5.59803 19.4018 -0.00012207 12.5 -0.00012207ZM18.8394 13.8547C19.4274 14.417 20.0409 14.9539 20.5521 15.5929C20.7822 15.8741 21.0122 16.1553 21.1656 16.4876C21.3957 16.9477 21.1912 17.459 20.7822 17.4845H18.226C17.5613 17.5356 17.0501 17.28 16.59 16.8199C16.2321 16.462 15.8998 16.0786 15.5675 15.6952C15.4397 15.5418 15.2863 15.3884 15.1073 15.2862C14.7495 15.0561 14.4427 15.1328 14.2638 15.4907C14.0593 15.8741 14.0082 16.2831 13.9826 16.6921C13.957 17.3056 13.7781 17.459 13.1646 17.4845C11.8609 17.5356 10.6339 17.3567 9.50919 16.6921C8.51226 16.1042 7.71983 15.3117 7.05521 14.3915C5.72597 12.6021 4.72903 10.6338 3.80879 8.61439C3.60429 8.15427 3.75767 7.92421 4.26891 7.89864C5.11247 7.87308 5.93046 7.87308 6.77402 7.89864C7.10633 7.89864 7.33639 8.10314 7.46421 8.40989C7.92433 9.50907 8.46114 10.5827 9.15132 11.5541C9.33026 11.8097 9.53475 12.0653 9.79038 12.2698C10.0971 12.4743 10.3016 12.3976 10.455 12.0653C10.5317 11.8608 10.5828 11.6307 10.6084 11.4007C10.6851 10.6338 10.6851 9.86694 10.5572 9.10007C10.4806 8.58883 10.2249 8.28208 9.73925 8.17983C9.48363 8.1287 9.53476 8.05202 9.637 7.89864C9.8415 7.66858 10.046 7.51521 10.4294 7.51521H13.318C13.7781 7.61746 13.8804 7.79639 13.9315 8.25652V11.4774C13.9315 11.6563 14.0082 12.1931 14.3405 12.2954C14.5961 12.3721 14.775 12.1676 14.9284 12.0142C15.6186 11.2729 16.1043 10.4038 16.5644 9.50907C16.7689 9.10007 16.9223 8.69108 17.1012 8.28208C17.229 7.97533 17.408 7.82196 17.7658 7.82196H20.5521C20.6288 7.82196 20.7055 7.82196 20.8078 7.84752C21.2679 7.92421 21.3957 8.1287 21.2679 8.58883C21.0378 9.30457 20.6033 9.91807 20.1687 10.506C19.7086 11.1451 19.1973 11.7586 18.7372 12.4232C18.2771 13.0367 18.3026 13.3434 18.8394 13.8547Z" fill="#999999"/>
</g>
<defs>
<clipPath id="clip0">
<rect width="25" height="25" fill="white" transform="translate(0 -0.00012207)"/>
</clipPath>
</defs>
</svg>
